<svg viewBox="80 40 680 470" xmlns="http://www.w3.org/2000/svg">
  <defs>
    <linearGradient id="grad1" x1="0%" y1="0%" x2="100%" y2="0%">
      <stop offset="0%" style="stop-color:#32e875;stop-opacity:1" />
      <stop offset="50%" style="stop-color:#7b2cbf;stop-opacity:1" />
      <stop offset="100%" style="stop-color:#7b2cbf;stop-opacity:0.6" />
    </linearGradient>
    <linearGradient id="grad2" x1="0%" y1="0%" x2="0%" y2="100%">
      <stop offset="0%" style="stop-color:#32e875;stop-opacity:0.6" />
      <stop offset="100%" style="stop-color:#7b2cbf;stop-opacity:0.2" />
    </linearGradient>
  </defs>
  
  <rect width="800" height="600" fill="#000000"/>
  
  <g stroke="#333333" stroke-width="1" opacity="0.3">
    <line x1="100" y1="50" x2="100" y2="500"/>
    <line x1="100" y1="500" x2="750" y2="500"/>
  </g>
  
  <!-- Shaded area beneath the curve -->
  <path d="M 100.0 60.0 L 102.2 214.8 L 104.3 279.6 L 106.5 316.9 L 108.7 341.7 L 110.9 359.6 L 113.0 373.3 L 115.2 384.2 L 117.4 393.1 L 119.6 400.6 L 121.7 406.9 L 123.9 412.4 L 126.1 417.2 L 128.3 421.5 L 130.4 425.3 L 132.6 428.7 L 134.8 431.7 L 137.0 434.5 L 139.1 437.1 L 141.3 439.5 L 143.5 441.6 L 145.7 443.7 L 147.8 445.5 L 150.0 447.3 L 152.2 448.9 L 154.3 450.4 L 156.5 451.9 L 158.7 453.2 L 160.9 454.5 L 163.0 455.7 L 165.2 456.9 L 167.4 458.0 L 169.6 459.0 L 171.7 460.0 L 173.9 461.0 L 176.1 461.9 L 178.3 462.7 L 180.4 463.6 L 182.6 464.4 L 184.8 465.1 L 187.0 465.8 L 189.1 466.5 L 191.3 467.2 L 193.5 467.9 L 195.7 468.5 L 197.8 469.1 L 200.0 469.7 L 202.2 470.3 L 204.3 470.8 L 206.5 471.3 L 208.7 471.9 L 210.9 472.4 L 213.0 472.8 L 215.2 473.3 L 217.4 473.8 L 219.6 474.2 L 221.7 474.6 L 223.9 475.1 L 226.1 475.5 L 228.3 475.9 L 230.4 476.2 L 232.6 476.6 L 234.8 477.0 L 237.0 477.3 L 239.1 477.7 L 241.3 478.0 L 243.5 478.4 L 245.7 478.7 L 247.8 479.0 L 250.0 479.3 L 252.2 479.6 L 254.3 479.9 L 256.5 480.2 L 258.7 480.5 L 260.9 480.7 L 263.0 481.0 L 265.2 481.3 L 267.4 481.5 L 269.6 481.8 L 271.7 482.0 L 273.9 482.3 L 276.1 482.5 L 278.3 482.8 L 280.4 483.0 L 282.6 483.2 L 284.8 483.4 L 287.0 483.6 L 289.1 483.9 L 291.3 484.1 L 293.5 484.3 L 295.7 484.5 L 297.8 484.7 L 300.0 484.9 L 302.2 485.1 L 304.3 485.2 L 306.5 485.4 L 308.7 485.6 L 310.9 485.8 L 313.0 486.0 L 315.2 486.1 L 317.4 486.3 L 319.6 486.5 L 321.7 486.7 L 323.9 486.8 L 326.1 487.0 L 328.3 487.1 L 330.4 487.3 L 332.6 487.4 L 334.8 487.6 L 337.0 487.7 L 339.1 487.9 L 341.3 488.0 L 343.5 488.2 L 345.7 488.3 L 347.8 488.5 L 350.0 488.6 L 352.2 488.7 L 354.3 488.9 L 356.5 489.0 L 358.7 489.1 L 360.9 489.2 L 363.0 489.4 L 365.2 489.5 L 367.4 489.6 L 369.6 489.7 L 371.7 489.9 L 373.9 490.0 L 376.1 490.1 L 378.3 490.2 L 380.4 490.3 L 382.6 490.4 L 384.8 490.6 L 387.0 490.7 L 389.1 490.8 L 391.3 490.9 L 393.5 491.0 L 395.7 491.1 L 397.8 491.2 L 400.0 491.3 L 402.2 491.4 L 404.3 491.5 L 406.5 491.6 L 408.7 491.7 L 410.9 491.8 L 413.0 491.9 L 415.2 492.0 L 417.4 492.1 L 419.6 492.2 L 421.7 492.3 L 423.9 492.3 L 426.1 492.4 L 428.3 492.5 L 430.4 492.6 L 432.6 492.7 L 434.8 492.8 L 437.0 492.9 L 439.1 493.0 L 441.3 493.0 L 443.5 493.1 L 445.7 493.2 L 447.8 493.3 L 450.0 493.4 L 452.2 493.4 L 454.3 493.5 L 456.5 493.6 L 458.7 493.7 L 460.9 493.7 L 463.0 493.8 L 465.2 493.9 L 467.4 494.0 L 469.6 494.0 L 471.7 494.1 L 473.9 494.2 L 476.1 494.3 L 478.3 494.3 L 480.4 494.4 L 482.6 494.5 L 484.8 494.5 L 487.0 494.6 L 489.1 494.7 L 491.3 494.7 L 493.5 494.8 L 495.7 494.9 L 497.8 494.9 L 500.0 495.0 L 502.2 495.1 L 504.3 495.1 L 506.5 495.2 L 508.7 495.3 L 510.9 495.3 L 513.0 495.4 L 515.2 495.4 L 517.4 495.5 L 519.6 495.6 L 521.7 495.6 L 523.9 495.7 L 526.1 495.7 L 528.3 495.8 L 530.4 495.9 L 532.6 495.9 L 534.8 496.0 L 537.0 496.0 L 539.1 496.1 L 541.3 496.1 L 543.5 496.2 L 545.7 496.2 L 547.8 496.3 L 550.0 496.4 L 552.2 496.4 L 554.3 496.5 L 556.5 496.5 L 558.7 496.6 L 560.9 496.6 L 563.0 496.7 L 565.2 496.7 L 567.4 496.8 L 569.6 496.8 L 571.7 496.9 L 573.9 496.9 L 576.1 497.0 L 578.3 497.0 L 580.4 497.1 L 582.6 497.1 L 584.8 497.2 L 587.0 497.2 L 589.1 497.2 L 591.3 497.3 L 593.5 497.3 L 595.7 497.4 L 597.8 497.4 L 600.0 497.5 L 602.2 497.5 L 604.3 497.6 L 606.5 497.6 L 608.7 497.7 L 610.9 497.7 L 613.0 497.7 L 615.2 497.8 L 617.4 497.8 L 619.6 497.9 L 621.7 497.9 L 623.9 498.0 L 626.1 498.0 L 628.3 498.0 L 630.4 498.1 L 632.6 498.1 L 634.8 498.2 L 637.0 498.2 L 639.1 498.2 L 641.3 498.3 L 643.5 498.3 L 645.7 498.4 L 647.8 498.4 L 650.0 498.4 L 652.2 498.5 L 654.3 498.5 L 656.5 498.6 L 658.7 498.6 L 660.9 498.6 L 663.0 498.7 L 665.2 498.7 L 667.4 498.7 L 669.6 498.8 L 671.7 498.8 L 673.9 498.9 L 676.1 498.9 L 678.3 498.9 L 680.4 499.0 L 682.6 499.0 L 684.8 499.0 L 687.0 499.1 L 689.1 499.1 L 691.3 499.1 L 693.5 499.2 L 695.7 499.2 L 697.8 499.2 L 700.0 499.3 L 702.2 499.3 L 704.3 499.3 L 706.5 499.4 L 708.7 499.4 L 710.9 499.4 L 713.0 499.5 L 715.2 499.5 L 717.4 499.5 L 719.6 499.6 L 721.7 499.6 L 723.9 499.6 L 726.1 499.7 L 728.3 499.7 L 730.4 499.7 L 732.6 499.8 L 734.8 499.8 L 737.0 499.8 L 739.1 499.8 L 741.3 499.9 L 743.5 499.9 L 745.7 499.9 L 747.8 500.0 L 750.0 500.0 L 750.0 500 L 100.0 500 Z" 
        fill="url(#grad2)" 
        opacity="0.7"/>
  
  <!-- DECLINING curve with 300 calculated points: Rank^(-0.6) -->
  <path d="M 100.0 60.0 L 102.2 214.8 L 104.3 279.6 L 106.5 316.9 L 108.7 341.7 L 110.9 359.6 L 113.0 373.3 L 115.2 384.2 L 117.4 393.1 L 119.6 400.6 L 121.7 406.9 L 123.9 412.4 L 126.1 417.2 L 128.3 421.5 L 130.4 425.3 L 132.6 428.7 L 134.8 431.7 L 137.0 434.5 L 139.1 437.1 L 141.3 439.5 L 143.5 441.6 L 145.7 443.7 L 147.8 445.5 L 150.0 447.3 L 152.2 448.9 L 154.3 450.4 L 156.5 451.9 L 158.7 453.2 L 160.9 454.5 L 163.0 455.7 L 165.2 456.9 L 167.4 458.0 L 169.6 459.0 L 171.7 460.0 L 173.9 461.0 L 176.1 461.9 L 178.3 462.7 L 180.4 463.6 L 182.6 464.4 L 184.8 465.1 L 187.0 465.8 L 189.1 466.5 L 191.3 467.2 L 193.5 467.9 L 195.7 468.5 L 197.8 469.1 L 200.0 469.7 L 202.2 470.3 L 204.3 470.8 L 206.5 471.3 L 208.7 471.9 L 210.9 472.4 L 213.0 472.8 L 215.2 473.3 L 217.4 473.8 L 219.6 474.2 L 221.7 474.6 L 223.9 475.1 L 226.1 475.5 L 228.3 475.9 L 230.4 476.2 L 232.6 476.6 L 234.8 477.0 L 237.0 477.3 L 239.1 477.7 L 241.3 478.0 L 243.5 478.4 L 245.7 478.7 L 247.8 479.0 L 250.0 479.3 L 252.2 479.6 L 254.3 479.9 L 256.5 480.2 L 258.7 480.5 L 260.9 480.7 L 263.0 481.0 L 265.2 481.3 L 267.4 481.5 L 269.6 481.8 L 271.7 482.0 L 273.9 482.3 L 276.1 482.5 L 278.3 482.8 L 280.4 483.0 L 282.6 483.2 L 284.8 483.4 L 287.0 483.6 L 289.1 483.9 L 291.3 484.1 L 293.5 484.3 L 295.7 484.5 L 297.8 484.7 L 300.0 484.9 L 302.2 485.1 L 304.3 485.2 L 306.5 485.4 L 308.7 485.6 L 310.9 485.8 L 313.0 486.0 L 315.2 486.1 L 317.4 486.3 L 319.6 486.5 L 321.7 486.7 L 323.9 486.8 L 326.1 487.0 L 328.3 487.1 L 330.4 487.3 L 332.6 487.4 L 334.8 487.6 L 337.0 487.7 L 339.1 487.9 L 341.3 488.0 L 343.5 488.2 L 345.7 488.3 L 347.8 488.5 L 350.0 488.6 L 352.2 488.7 L 354.3 488.9 L 356.5 489.0 L 358.7 489.1 L 360.9 489.2 L 363.0 489.4 L 365.2 489.5 L 367.4 489.6 L 369.6 489.7 L 371.7 489.9 L 373.9 490.0 L 376.1 490.1 L 378.3 490.2 L 380.4 490.3 L 382.6 490.4 L 384.8 490.6 L 387.0 490.7 L 389.1 490.8 L 391.3 490.9 L 393.5 491.0 L 395.7 491.1 L 397.8 491.2 L 400.0 491.3 L 402.2 491.4 L 404.3 491.5 L 406.5 491.6 L 408.7 491.7 L 410.9 491.8 L 413.0 491.9 L 415.2 492.0 L 417.4 492.1 L 419.6 492.2 L 421.7 492.3 L 423.9 492.3 L 426.1 492.4 L 428.3 492.5 L 430.4 492.6 L 432.6 492.7 L 434.8 492.8 L 437.0 492.9 L 439.1 493.0 L 441.3 493.0 L 443.5 493.1 L 445.7 493.2 L 447.8 493.3 L 450.0 493.4 L 452.2 493.4 L 454.3 493.5 L 456.5 493.6 L 458.7 493.7 L 460.9 493.7 L 463.0 493.8 L 465.2 493.9 L 467.4 494.0 L 469.6 494.0 L 471.7 494.1 L 473.9 494.2 L 476.1 494.3 L 478.3 494.3 L 480.4 494.4 L 482.6 494.5 L 484.8 494.5 L 487.0 494.6 L 489.1 494.7 L 491.3 494.7 L 493.5 494.8 L 495.7 494.9 L 497.8 494.9 L 500.0 495.0 L 502.2 495.1 L 504.3 495.1 L 506.5 495.2 L 508.7 495.3 L 510.9 495.3 L 513.0 495.4 L 515.2 495.4 L 517.4 495.5 L 519.6 495.6 L 521.7 495.6 L 523.9 495.7 L 526.1 495.7 L 528.3 495.8 L 530.4 495.9 L 532.6 495.9 L 534.8 496.0 L 537.0 496.0 L 539.1 496.1 L 541.3 496.1 L 543.5 496.2 L 545.7 496.2 L 547.8 496.3 L 550.0 496.4 L 552.2 496.4 L 554.3 496.5 L 556.5 496.5 L 558.7 496.6 L 560.9 496.6 L 563.0 496.7 L 565.2 496.7 L 567.4 496.8 L 569.6 496.8 L 571.7 496.9 L 573.9 496.9 L 576.1 497.0 L 578.3 497.0 L 580.4 497.1 L 582.6 497.1 L 584.8 497.2 L 587.0 497.2 L 589.1 497.2 L 591.3 497.3 L 593.5 497.3 L 595.7 497.4 L 597.8 497.4 L 600.0 497.5 L 602.2 497.5 L 604.3 497.6 L 606.5 497.6 L 608.7 497.7 L 610.9 497.7 L 613.0 497.7 L 615.2 497.8 L 617.4 497.8 L 619.6 497.9 L 621.7 497.9 L 623.9 498.0 L 626.1 498.0 L 628.3 498.0 L 630.4 498.1 L 632.6 498.1 L 634.8 498.2 L 637.0 498.2 L 639.1 498.2 L 641.3 498.3 L 643.5 498.3 L 645.7 498.4 L 647.8 498.4 L 650.0 498.4 L 652.2 498.5 L 654.3 498.5 L 656.5 498.6 L 658.7 498.6 L 660.9 498.6 L 663.0 498.7 L 665.2 498.7 L 667.4 498.7 L 669.6 498.8 L 671.7 498.8 L 673.9 498.9 L 676.1 498.9 L 678.3 498.9 L 680.4 499.0 L 682.6 499.0 L 684.8 499.0 L 687.0 499.1 L 689.1 499.1 L 691.3 499.1 L 693.5 499.2 L 695.7 499.2 L 697.8 499.2 L 700.0 499.3 L 702.2 499.3 L 704.3 499.3 L 706.5 499.4 L 708.7 499.4 L 710.9 499.4 L 713.0 499.5 L 715.2 499.5 L 717.4 499.5 L 719.6 499.6 L 721.7 499.6 L 723.9 499.6 L 726.1 499.7 L 728.3 499.7 L 730.4 499.7 L 732.6 499.8 L 734.8 499.8 L 737.0 499.8 L 739.1 499.8 L 741.3 499.9 L 743.5 499.9 L 745.7 499.9 L 747.8 500.0 L 750.0 500.0" 
        fill="none" 
        stroke="url(#grad1)" 
        stroke-width="4"/>
  
  <!-- PRAXIS word art in top right -->
  <text x="600" y="200" 
        font-family="Arial, sans-serif" 
        font-size="96" 
        font-weight="bold" 
        font-style="italic"
        text-anchor="end"
        fill="url(#grad1)"
        opacity="0.9">
    PRAXIS
  </text>
  
  <!-- TPSA Logo below PRAXIS text - centered and larger -->
  <g transform="translate(350, 240) scale(10)">
    <path d="M 5.6074599,10.412731 C 3.3702829,11.389659 1.9504788,10.679427 0.87257767,10.287642 1.1555696,7.281873 4.2288384,4.8228179 7.5417144,5.4855916 7.5760704,5.6563773 7.5730974,5.9058945 7.5575714,6.0843886 4.2726644,5.3832951 1.7822254,7.9764693 1.5448206,9.8940966 2.65928,10.300085 3.8227403,10.499721 5.130779,9.9401276 5.3105945,10.127651 5.3631186,10.180946 5.6074606,10.412735 Z" fill="#32e875"/>
    <path d="m 0.87257767,10.287642 c -0.019378,0.141055 -0.047793,0.347079 -0.050758,0.53339 1.78934543,0.945325 3.81312173,0.790065 5.28071523,-0.0142 C 5.8801053,10.645956 5.7824347,10.571519 5.6074643,10.412735 3.3702872,11.389662 1.9504832,10.67943 0.87258207,10.287646 Z" fill="#9d4edd"/>
    <path d="M 1.5448202,9.8940966 C 1.782225,7.9764693 4.272664,5.3832951 7.5575707,6.0843886 7.5451279,6.2723526 7.4999816,6.5519308 7.4582481,6.7046584 4.7153197,6.0672113 2.3797013,8.249661 2.1504447,10.089769 1.8970738,10.01577 1.7723152,9.9787745 1.5448202,9.8940966 Z" fill="#10002b"/>
    <path d="M 4.4283644,5.4352689 C 4.7006748,3.0093582 6.0263317,2.1349461 6.9042671,1.397626 9.3658554,3.1452379 9.958596,7.0362105 7.7283569,9.5739971 7.5631866,9.5185012 7.3485752,9.3912085 7.201904,9.2884721 9.4515233,6.7940701 8.451032,3.3405788 6.9090019,2.1762387 6.0001248,2.9384445 5.2456268,3.8464408 5.076162,5.2589774 4.8236716,5.3208633 4.7509967,5.3398032 4.4283644,5.4352689 Z" fill="#9d4edd"/>
    <path d="M 6.9042671,1.397626 C 6.7919513,1.3098632 6.6276619,1.182134 6.4676668,1.0866649 4.7540799,2.1636854 3.8770257,3.993993 3.8395867,5.6671679 4.0898753,5.5548521 4.2035118,5.5071729 4.4283644,5.4352689 4.7006748,3.0093582 6.0263317,2.1349461 6.9042671,1.397626 Z" fill="#10002b"/>
    <path d="M 6.9090019,2.1762387 C 8.451032,3.3405788 9.4515233,6.7940701 7.201904,9.2884721 7.0453226,9.1834216 6.8255359,9.0044898 6.7145414,8.8922835 8.6376747,6.8353627 7.9154398,3.7216822 6.436725,2.6029282 6.6272214,2.42047 6.7219191,2.3310584 6.9090019,2.1762387 Z" fill="#32e875"/>
    <path d="M 9.3323807,6.8693879 C 11.297136,8.3180417 11.391834,9.9031267 11.59136,11.032121 8.8467803,12.290277 5.1807698,10.85792 4.0980236,7.6573601 4.2288384,7.5420714 4.446533,7.4203962 4.60862,7.3446385 5.6440175,10.540132 9.1353877,11.399899 10.914382,10.646723 10.709241,9.4785282 10.300168,8.3713373 9.1611542,7.5179572 9.2338285,7.2689903 9.2536493,7.1963149 9.3323807,6.8693879 Z" fill="#10002b"/>
    <path d="m 11.59136,11.032121 c 0.132026,-0.05373 0.324724,-0.132028 0.487363,-0.222761 -0.07565,-2.0224542 -1.222041,-3.6973919 -2.6526357,-4.5662982 -0.02797,0.2731917 -0.04339,0.3953079 -0.093706,0.6263261 1.9647557,1.4486538 2.0594537,3.0337388 2.2589787,4.1627331 z" fill="#32e875"/>
    <path d="M 10.914382,10.646723 C 9.1353877,11.399899 5.6440175,10.540129 4.60862,7.3446385 4.7780846,7.2611758 5.0426875,7.1600883 5.1957453,7.1205573 c 0.819465,2.693928 3.877208,3.6251577 5.5852887,2.9042447 0.06276,0.256343 0.09338,0.382865 0.133348,0.621921 z" fill="#9d4edd"/>
  </g>
</svg>
