<?xml version="1.0" encoding="UTF-8" standalone="no"?>
<!-- Created with Inkscape (http://www.inkscape.org/) -->

<svg
   width="48"
   height="48"
   viewBox="0 0 12.7 12.7"
   version="1.1"
   id="svg1"
   inkscape:version="1.3.2 (091e20e, 2023-11-25, custom)"
   sodipodi:docname="TPSA Logo.svg"
   xmlns:inkscape="http://www.inkscape.org/namespaces/inkscape"
   xmlns:sodipodi="http://sodipodi.sourceforge.net/DTD/sodipodi-0.dtd"
   xmlns="http://www.w3.org/2000/svg"
   xmlns:svg="http://www.w3.org/2000/svg">
  <sodipodi:namedview
     id="namedview1"
     pagecolor="#ffffff"
     bordercolor="#000000"
     borderopacity="0.25"
     inkscape:showpageshadow="2"
     inkscape:pageopacity="0.0"
     inkscape:pagecheckerboard="0"
     inkscape:deskcolor="#d1d1d1"
     inkscape:document-units="mm"
     inkscape:zoom="17.234835"
     inkscape:cx="26.312988"
     inkscape:cy="25.442657"
     inkscape:window-width="1920"
     inkscape:window-height="1051"
     inkscape:window-x="-9"
     inkscape:window-y="-9"
     inkscape:window-maximized="1"
     inkscape:current-layer="layer1" />
  <defs
     id="defs1" />
  <g
     inkscape:label="Layer 1"
     inkscape:groupmode="layer"
     id="layer1">
    <path
       id="path336"
       d="M 5.6074599,10.412731 C 3.3702829,11.389659 1.9504788,10.679427 0.87257767,10.287642 1.1555696,7.281873 4.2288384,4.8228179 7.5417144,5.4855916 7.5760704,5.6563773 7.5730974,5.9058945 7.5575714,6.0843886 4.2726644,5.3832951 1.7822254,7.9764693 1.5448206,9.8940966 2.65928,10.300085 3.8227403,10.499721 5.130779,9.9401276 5.3105945,10.127651 5.3631186,10.180946 5.6074606,10.412735 Z"
       style="fill:#32e875;fill-opacity:1;fill-rule:nonzero;stroke:none;stroke-width:0.110113" />
    <path
       id="path337"
       d="m 0.87257767,10.287642 c -0.019378,0.141055 -0.047793,0.347079 -0.050758,0.53339 1.78934543,0.945325 3.81312173,0.790065 5.28071523,-0.0142 C 5.8801053,10.645956 5.7824347,10.571519 5.6074643,10.412735 3.3702872,11.389662 1.9504832,10.67943 0.87258207,10.287646 Z"
       style="fill:#9d4edd;fill-opacity:1;fill-rule:nonzero;stroke:none;stroke-width:0.110113" />
    <path
       id="path338"
       d="M 1.5448202,9.8940966 C 1.782225,7.9764693 4.272664,5.3832951 7.5575707,6.0843886 7.5451279,6.2723526 7.4999816,6.5519308 7.4582481,6.7046584 4.7153197,6.0672113 2.3797013,8.249661 2.1504447,10.089769 1.8970738,10.01577 1.7723152,9.9787745 1.5448202,9.8940966 Z"
       style="fill:#10002b;fill-opacity:1;fill-rule:nonzero;stroke:none;stroke-width:0.110113" />
    <path
       id="path339"
       d="M 4.4283644,5.4352689 C 4.7006748,3.0093582 6.0263317,2.1349461 6.9042671,1.397626 9.3658554,3.1452379 9.958596,7.0362105 7.7283569,9.5739971 7.5631866,9.5185012 7.3485752,9.3912085 7.201904,9.2884721 9.4515233,6.7940701 8.451032,3.3405788 6.9090019,2.1762387 6.0001248,2.9384445 5.2456268,3.8464408 5.076162,5.2589774 4.8236716,5.3208633 4.7509967,5.3398032 4.4283644,5.4352689 Z"
       style="fill:#9d4edd;fill-opacity:1;fill-rule:nonzero;stroke:none;stroke-width:0.110113" />
    <path
       id="path340"
       d="M 6.9042671,1.397626 C 6.7919513,1.3098632 6.6276619,1.182134 6.4676668,1.0866649 4.7540799,2.1636854 3.8770257,3.993993 3.8395867,5.6671679 4.0898753,5.5548521 4.2035118,5.5071729 4.4283644,5.4352689 4.7006748,3.0093582 6.0263317,2.1349461 6.9042671,1.397626 Z"
       style="fill:#10002b;fill-opacity:1;fill-rule:nonzero;stroke:none;stroke-width:0.110113" />
    <path
       id="path341"
       d="M 6.9090019,2.1762387 C 8.451032,3.3405788 9.4515233,6.7940701 7.201904,9.2884721 7.0453226,9.1834216 6.8255359,9.0044898 6.7145414,8.8922835 8.6376747,6.8353627 7.9154398,3.7216822 6.436725,2.6029282 6.6272214,2.42047 6.7219191,2.3310584 6.9090019,2.1762387 Z"
       style="fill:#32e875;fill-opacity:1;fill-rule:nonzero;stroke:none;stroke-width:0.110113" />
    <path
       id="path342"
       d="M 9.3323807,6.8693879 C 11.297136,8.3180417 11.391834,9.9031267 11.59136,11.032121 8.8467803,12.290277 5.1807698,10.85792 4.0980236,7.6573601 4.2288384,7.5420714 4.446533,7.4203962 4.60862,7.3446385 5.6440175,10.540132 9.1353877,11.399899 10.914382,10.646723 10.709241,9.4785282 10.300168,8.3713373 9.1611542,7.5179572 9.2338285,7.2689903 9.2536493,7.1963149 9.3323807,6.8693879 Z"
       style="fill:#10002b;fill-opacity:1;fill-rule:nonzero;stroke:none;stroke-width:0.110113" />
    <path
       id="path343"
       d="m 11.59136,11.032121 c 0.132026,-0.05373 0.324724,-0.132028 0.487363,-0.222761 -0.07565,-2.0224542 -1.222041,-3.6973919 -2.6526357,-4.5662982 -0.02797,0.2731917 -0.04339,0.3953079 -0.093706,0.6263261 1.9647557,1.4486538 2.0594537,3.0337388 2.2589787,4.1627331 z"
       style="fill:#32e875;fill-opacity:1;fill-rule:nonzero;stroke:none;stroke-width:0.110113" />
    <path
       id="path344"
       d="M 10.914382,10.646723 C 9.1353877,11.399899 5.6440175,10.540129 4.60862,7.3446385 4.7780846,7.2611758 5.0426875,7.1600883 5.1957453,7.1205573 c 0.819465,2.693928 3.877208,3.6251577 5.5852887,2.9042447 0.06276,0.256343 0.09338,0.382865 0.133348,0.621921 z"
       style="fill:#9d4edd;fill-opacity:1;fill-rule:nonzero;stroke:none;stroke-width:0.110113" />
  </g>
</svg>
